<?xml version="1.0" encoding="UTF-8"?><svg id="Layer_1" xmlns="http://www.w3.org/2000/svg" viewBox="0 0 177 187"><rect x="-11.38" y="-25.97" width="200.02" height="231.53" style="fill:#fe5;"/><path d="M94.05,59.61c2.05,8.48,1.36,15.94-1.55,16.66-2.9,.72-6.91-5.57-8.96-14.05-2.05-8.48-1.36-15.94,1.55-16.66,2.9-.72,6.91,5.57,8.96,14.05Z" style="fill:#1c1c1c;"/><path d="M127.85,66.9c-4.53-4.81-13.55-3.5-20.15,2.91-6.59,6.41-8.26,15.5-3.73,20.31,4.53,4.8,13.55,3.5,20.15-2.91s8.26-15.5,3.73-20.31Z" style="fill:#1c1c1c;"/><path d="M91.79,140.47c2.9-.72,3.49-8.6,1.32-17.61-2.17-9-6.29-15.71-9.19-14.99-2.9,.72-3.49,8.6-1.32,17.61,2.17,9,6.29,15.71,9.19,14.99Z" style="fill:#1c1c1c;"/><path d="M62.22,71.3c8.37,2.47,14.48,6.8,13.66,9.67-.83,2.87-8.28,3.2-16.65,.73-8.37-2.47-14.48-6.8-13.66-9.67,.83-2.87,8.28-3.2,16.65-.73Z" style="fill:#1c1c1c;"/><path d="M116.54,103.74c8.88,2.62,15.41,7.07,14.59,9.94-.83,2.87-8.7,3.08-17.58,.46-8.88-2.62-15.41-7.07-14.59-9.94,.83-2.87,8.7-3.08,17.58-.46Z" style="fill:#1c1c1c;"/><path d="M71.64,97.71c-2.08-2.15-8.88,.98-15.2,6.99-6.32,6.01-9.76,12.63-7.69,14.78,2.08,2.15,8.88-.98,15.2-6.99,6.32-6.01,9.76-12.63,7.69-14.78Z" style="fill:#1c1c1c;"/></svg>